<?xml version="1.0" encoding="UTF-8"?>
<!-- Generator: visioncortex VTracer -->
<svg id="svg" version="1.1" xmlns="http://www.w3.org/2000/svg" viewBox="-25 -25 562 562" style="display: block;">
<defs>
  <filter id="outline" x="-10%" y="-10%" width="120%" height="120%">
    <!-- Morphological close: fill interior gaps (dilate then erode) -->
    <feMorphology in="SourceAlpha" operator="dilate" radius="30" result="closeD"/>
    <feMorphology in="closeD" operator="erode" radius="30" result="solid"/>
    <!-- Dilate the solid shape for the outline border -->
    <feMorphology in="solid" operator="dilate" radius="14" result="outlineMask"/>
    <!-- Outer ring only: dilated minus solid interior -->
    <feFlood flood-color="#FFFFFF" result="white"/>
    <feComposite in="white" in2="outlineMask" operator="in" result="whiteDilated"/>
    <feComposite in="whiteDilated" in2="solid" operator="out" result="outerRing"/>
    <!-- Original graphic on top of the outer ring -->
    <feMerge>
      <feMergeNode in="outerRing"/>
      <feMergeNode in="SourceGraphic"/>
    </feMerge>
  </filter>
</defs>
<g filter="url(#outline)">
<path d="M0 0 C0.65668671 0.00215515 1.31337341 0.0043103 1.98995972 0.00653076 C31.96355855 0.1637008 60.00251917 9.20752991 86.62011719 22.69873047 C93.54196551 26.11746967 100.35687604 27.4437698 108.0625 27.6875 C131.91618338 29.01017078 152.54218094 41.13485821 169.4375 57.3125 C170.07300781 57.89644531 170.70851563 58.48039062 171.36328125 59.08203125 C183.66593905 70.73000216 194.00336489 89.1055699 196 106.0625 C196.86705019 110.32869384 198.95096267 111.82840327 202.4375 114.3125 C203.93948963 115.31151732 205.44760397 116.30081194 206.95605469 117.29003906 C234.03778594 135.98125371 250.52329768 171.7403096 257.02441406 203.14794922 C259.59110609 216.50907953 261.57088265 229.69996273 261.640625 243.32421875 C261.64768463 244.24691055 261.65474426 245.16960236 261.66201782 246.12025452 C261.89037324 284.71901291 261.89037324 284.71901291 258.4375 301.3125 C258.13150879 302.81683594 258.13150879 302.81683594 257.81933594 304.3515625 C253.61137849 324.4909571 247.31168877 343.25130878 237.4375 361.3125 C237.09493164 361.94639648 236.75236328 362.58029297 236.39941406 363.23339844 C230.87998316 373.32063422 224.2208006 381.87445277 216.4375 390.3125 C215.69886719 391.13363281 214.96023438 391.95476562 214.19921875 392.80078125 C207.74596263 399.64293416 200.16682713 405.0161116 192.4375 410.3125 C191.57511719 410.90933594 190.71273438 411.50617188 189.82421875 412.12109375 C184.42379836 415.50714774 179.74139064 416.0746284 173.4375 415.3125 C172.76976562 415.07144531 172.10203125 414.83039063 171.4140625 414.58203125 C169.31721829 414.07972967 169.31721829 414.07972967 167.38671875 415.61328125 C166.64035156 416.27714844 165.89398438 416.94101562 165.125 417.625 C155.63163536 425.68181012 144.95983206 432.0390289 134.32363892 438.46047974 C130.896133 440.53475867 127.4816614 442.63049937 124.06445312 444.72167969 C121.76118703 446.11648284 119.44017592 447.47236603 117.109375 448.8203125 C111.02163075 452.27299126 111.02163075 452.27299126 107.58203125 458.09375 C107.30423361 460.95579661 107.30423361 460.95579661 107.58984375 463.63671875 C107.31877921 468.39772409 104.29198313 471.40065914 101.16796875 474.734375 C87.41354224 487.32675318 72.01238133 496.42077719 54.25 502.125 C53.64551025 502.32005127 53.04102051 502.51510254 52.41821289 502.71606445 C41.87782204 505.89317735 31.26250373 506.69234807 20.3125 506.625 C19.67787842 506.62284485 19.04325684 506.6206897 18.3894043 506.61846924 C7.8273356 506.56116031 -2.27956531 505.83021122 -12.5625 503.3125 C-13.37025879 503.11914062 -14.17801758 502.92578125 -15.01025391 502.7265625 C-44.34278743 495.50898827 -71.49511944 481.17668366 -96.27001953 464.13818359 C-103.77695061 458.98233662 -111.42290848 454.84315751 -119.6875 451 C-140.89822876 441.11701996 -160.63302358 428.36095291 -178.5625 413.3125 C-179.07312988 412.8906543 -179.58375977 412.46880859 -180.10986328 412.03417969 C-193.11584733 401.2760967 -205.30758104 389.76301523 -215.5625 376.3125 C-215.99127441 375.76013672 -216.42004883 375.20777344 -216.86181641 374.63867188 C-231.91308641 355.18254278 -243.15590144 333.40096797 -248.5625 309.3125 C-248.74796387 308.51368408 -248.93342773 307.71486816 -249.12451172 306.8918457 C-250.83132942 298.72698406 -250.95981975 290.6800737 -250.9375 282.375 C-250.93728851 281.64839172 -250.93707703 280.92178345 -250.93685913 280.17315674 C-250.89143242 264.50115733 -248.87442769 249.88703302 -243.05004883 235.23974609 C-241.43048276 230.97219889 -241.62023324 227.66520556 -242.5625 223.3125 C-242.81566231 221.97430892 -243.06689346 220.63575136 -243.31640625 219.296875 C-243.44901855 218.60916016 -243.58163086 217.92144531 -243.71826172 217.21289062 C-248.00948697 194.52554848 -243.46468778 172.64022679 -231.33984375 152.98046875 C-228.6206049 148.8986223 -225.72775765 145.05805488 -222.5625 141.3125 C-221.86125 140.4771875 -221.16 139.641875 -220.4375 138.78125 C-213.35363411 130.61512682 -205.6844669 124.75501249 -196.3359375 119.37890625 C-189.25677673 114.10443294 -185.53326779 108.01997497 -182.625 99.8125 C-181.95159811 98.03846488 -181.27313239 96.26634439 -180.58984375 94.49609375 C-180.2532373 93.62194824 -179.91663086 92.74780273 -179.56982422 91.84716797 C-169.1473612 65.62176539 -150.3708816 46.21117303 -124.80737305 34.3684082 C-110.50815518 28.03081659 -94.84777432 23.98735866 -79.20703125 23.00390625 C-68.76830487 22.28868407 -62.48196973 19.51835069 -54.06591797 13.37841797 C-48.17122203 9.19909961 -41.50594319 6.8199231 -34.6875 4.625 C-34.06375488 4.42229492 -33.44000977 4.21958984 -32.79736328 4.01074219 C-22.01323409 0.7158208 -11.19996237 -0.06648128 0 0 Z M-50.5625 37.3125 C-51.0399451 40.86893552 -50.89300942 44.4780793 -50.875 48.0625 C-50.87226074 49.15691406 -50.86952148 50.25132813 -50.86669922 51.37890625 C-50.75655335 60.40327159 -50.092812 69.33553165 -49.1875 78.3125 C-49.12446686 78.94748413 -49.06143372 79.58246826 -48.99649048 80.23669434 C-48.27514423 87.36537412 -47.35285165 94.36253417 -45.5625 101.3125 C-43.49622159 98.61231907 -41.5920339 95.8569286 -39.75 93 C-30.00575477 78.44319356 -15.66726882 69.34777997 1.4375 65.3125 C15.10724909 62.47538227 29.78907793 64.0935685 42.09765625 70.81640625 C55.11003144 79.13650591 60.92727292 91.48647234 66.4375 105.3125 C66.7675 105.3125 67.0975 105.3125 67.4375 105.3125 C68.20644846 98.90518003 68.97172158 92.49743161 69.7325964 86.08914757 C70.08619802 83.1119564 70.44095689 80.13491365 70.79858398 77.15820312 C73.03337268 58.77380222 73.03337268 58.77380222 74.4375 40.3125 C57.47439241 31.77657727 39.2883 25.08063932 20.4375 22.3125 C19.83421875 22.2211377 19.2309375 22.12977539 18.609375 22.03564453 C-2.90431023 19.01835018 -34.06242068 20.81242068 -50.5625 37.3125 Z M-137.5625 69.3125 C-138.32949219 69.97636719 -139.09648437 70.64023438 -139.88671875 71.32421875 C-152.30390386 82.72947706 -163.06410076 104.56195661 -164.5625 121.3125 C-163.58639186 124.06209489 -163.58639186 124.06209489 -161.94921875 126.8203125 C-161.66435608 127.33829407 -161.37949341 127.85627563 -161.08599854 128.38995361 C-160.47281785 129.50084454 -159.85309693 130.60814591 -159.22750854 131.71209717 C-158.23613155 133.46197924 -157.26257411 135.22074789 -156.29321289 136.98291016 C-154.99124604 139.34684661 -153.68335057 141.70730116 -152.36914062 144.06445312 C-150.03764533 148.24995251 -147.74680853 152.45590004 -145.5 156.6875 C-145.11666504 157.40897217 -144.73333008 158.13044434 -144.33837891 158.8737793 C-139.87854004 167.41372106 -135.90970288 176.19663539 -131.93920898 184.97216797 C-131.67091278 185.5607811 -131.40261658 186.14939423 -131.12619019 186.75584412 C-130.39296054 188.36539398 -129.66517147 189.97741911 -128.93774414 191.58959961 C-127.67887375 194.08208699 -126.31704331 196.14960782 -124.5625 198.3125 C-125.89842249 190.88718502 -127.81441213 183.73428844 -129.9375 176.5 C-132.27472093 168.34522371 -134.36459199 160.21293218 -135.9375 151.875 C-136.0926709 151.05475342 -136.2478418 150.23450684 -136.40771484 149.3894043 C-139.21073572 133.77462834 -141.14301991 115.91797522 -133.1484375 101.5 C-127.3417136 93.49072566 -117.70515732 91.41789029 -108.5625 89.3125 C-107.65242188 89.085625 -106.74234375 88.85875 -105.8046875 88.625 C-93.35724243 86.01212523 -79.06544715 86.13276723 -66.5625 88.3125 C-67.09283542 73.63704469 -67.67235736 58.97144473 -68.5625 44.3125 C-92.44847283 44.3125 -119.81010639 53.05242669 -137.5625 69.3125 Z M105.4375 48.3125 C104.93054618 50.37350867 104.43180233 52.43595378 103.9375 54.5 C103.79441406 55.07814453 103.65132813 55.65628906 103.50390625 56.25195312 C102.69122455 59.676826 102.27851868 62.79503822 102.4375 66.3125 C103.79681641 66.55033203 103.79681641 66.55033203 105.18359375 66.79296875 C118.04678689 69.18933137 126.01816159 74.06642701 135.4375 83.3125 C136.04335938 83.89386719 136.64921875 84.47523437 137.2734375 85.07421875 C153.26311655 101.7770525 159.78660542 125.36027758 164.4375 147.3125 C166.85889707 144.89110293 167.67982628 142.69531299 169.00390625 139.53515625 C169.24286118 138.968004 169.4818161 138.40085175 169.72801208 137.81651306 C170.48993706 136.00456457 171.24489524 134.1897997 172 132.375 C172.51194521 131.15672254 173.02431029 129.93862142 173.53710938 128.72070312 C177.86788279 118.49623555 177.86788279 118.49623555 176.375 107.875 C176.03154541 106.66372437 176.03154541 106.66372437 175.68115234 105.42797852 C172.50719012 94.68294996 167.68261028 85.89311448 160.4375 77.3125 C160.00179687 76.73242188 159.56609375 76.15234375 159.1171875 75.5546875 C147.63549529 60.77286819 128.49079155 51.65488772 110.4375 48.3125 C108.77168829 48.25912286 107.10246691 48.23724726 105.4375 48.3125 Z M201.4375 140.3125 C200.33501208 142.33850678 199.29431441 144.36869072 198.27734375 146.4375 C197.81334923 147.36973389 197.81334923 147.36973389 197.33998108 148.32080078 C196.34790337 150.3161969 195.36140935 152.31429664 194.375 154.3125 C193.70544271 155.66163934 193.03552565 157.01060018 192.36523438 158.359375 C190.71846649 161.67502271 189.07670292 164.99310621 187.4375 168.3125 C190.29261903 169.77287482 193.09365738 170.89288274 196.125 171.9375 C203.6751383 174.96646404 209.4021001 179.78518768 213.25 187 C214.01773888 188.75445483 214.74623919 190.52652877 215.4375 192.3125 C215.79457031 193.19808594 216.15164063 194.08367187 216.51953125 194.99609375 C219.5428325 203.52248267 220.46742327 212.21215364 221.39892578 221.17431641 C221.5070459 222.18155762 221.61516602 223.18879883 221.7265625 224.2265625 C221.86118896 225.5870874 221.86118896 225.5870874 221.99853516 226.97509766 C222.43134272 229.27971368 222.97975061 230.50912174 224.4375 232.3125 C225.00597656 231.68601562 225.57445312 231.05953125 226.16015625 230.4140625 C230.58206234 225.73378127 233.84046522 222.2950371 240.4375 221.3125 C238.46260887 204.55997524 232.7870652 188.42209995 225.4375 173.3125 C224.96699219 172.34183594 224.49648438 171.37117188 224.01171875 170.37109375 C218.4880218 159.68157318 211.03483319 148.7783755 202.4375 140.3125 C202.1075 140.3125 201.7775 140.3125 201.4375 140.3125 Z M-124.5625 198.3125 C-123.5625 201.3125 -123.5625 201.3125 -123.5625 201.3125 Z M-123.5625 201.3125 C-122.5625 203.3125 -122.5625 203.3125 -122.5625 203.3125 Z " transform="translate(250.5625,2.6875)" style="fill: #7FADFE;"/>
<path d="M0 0 C0.65668671 0.00215515 1.31337341 0.0043103 1.98995972 0.00653076 C31.96355855 0.1637008 60.00251917 9.20752991 86.62011719 22.69873047 C93.54196551 26.11746967 100.35687604 27.4437698 108.0625 27.6875 C131.91618338 29.01017078 152.54218094 41.13485821 169.4375 57.3125 C170.07300781 57.89644531 170.70851563 58.48039062 171.36328125 59.08203125 C183.66593905 70.73000216 194.00336489 89.1055699 196 106.0625 C196.86705019 110.32869384 198.95096267 111.82840327 202.4375 114.3125 C203.93948963 115.31151732 205.44760397 116.30081194 206.95605469 117.29003906 C234.03778594 135.98125371 250.52329768 171.7403096 257.02441406 203.14794922 C259.59110609 216.50907953 261.57088265 229.69996273 261.640625 243.32421875 C261.64768463 244.24691055 261.65474426 245.16960236 261.66201782 246.12025452 C261.89037324 284.71901291 261.89037324 284.71901291 258.4375 301.3125 C258.13150879 302.81683594 258.13150879 302.81683594 257.81933594 304.3515625 C253.61137849 324.4909571 247.31168877 343.25130878 237.4375 361.3125 C237.09493164 361.94639648 236.75236328 362.58029297 236.39941406 363.23339844 C230.87998316 373.32063422 224.2208006 381.87445277 216.4375 390.3125 C215.69886719 391.13363281 214.96023438 391.95476562 214.19921875 392.80078125 C207.74596263 399.64293416 200.16682713 405.0161116 192.4375 410.3125 C191.57511719 410.90933594 190.71273438 411.50617188 189.82421875 412.12109375 C185.17815747 415.03416592 181.18343595 416.0865979 175.67578125 415.8125 C171.980094 414.98693635 170.65900248 413.32227755 168.4375 410.3125 C167.30125881 408.04001762 167.17303157 406.52947236 167.0625 404 C167.01351563 403.24074219 166.96453125 402.48148437 166.9140625 401.69921875 C167.7970332 397.67313595 170.7535715 395.50273491 173.98388672 393.21948242 C175.6586881 392.13488044 177.35539941 391.09544093 179.0625 390.0625 C211.69483905 369.58655203 229.00676647 335.96960933 238.4609375 299.44921875 C242.08490253 283.89487379 242.78379115 268.22591031 242.4375 252.3125 C242.1065332 252.97032471 241.77556641 253.62814941 241.43457031 254.3059082 C231.61713395 273.7296351 221.21454215 292.36193154 207.4375 309.3125 C206.70415669 310.22764798 205.97107834 311.14300834 205.23828125 312.05859375 C202.99640265 314.83176135 200.72643114 317.5781947 198.4375 320.3125 C198.00244141 320.83392578 197.56738281 321.35535156 197.11914062 321.89257812 C182.49966775 339.35759015 166.87636669 356.6122279 149.4375 371.3125 C148.40230976 372.22113634 147.36859542 373.13145547 146.3359375 374.04296875 C140.39794035 379.25790423 134.36225629 384.30790052 128 389 C127.16831299 389.6328894 127.16831299 389.6328894 126.31982422 390.27856445 C122.37148094 393.11699114 119.32563339 394.13729809 114.4375 394.3125 C111.63560554 392.54608828 109.92225089 391.28200178 108.4375 388.3125 C108.0625 385.5 108.0625 385.5 108.4375 382.3125 C111.9961953 378.35766051 116.06527995 374.99010107 120.125 371.5625 C131.94219481 361.49863489 143.41814261 351.35595098 153.125 339.18359375 C154.67161112 337.24571112 156.25287133 335.34775974 157.875 333.47265625 C168.16386577 321.54977156 175.92632541 308.66471426 183.3347168 294.79003906 C195.72401209 271.597801 209.0388174 249.16087441 226.4375 229.3125 C227.27958008 228.33047607 227.27958008 228.33047607 228.13867188 227.32861328 C231.00912262 224.18535771 233.05116398 221.99743634 237.375 221.375 C238.8909375 221.3440625 238.8909375 221.3440625 240.4375 221.3125 C232.71845373 191.23507439 223.19791582 165.0475558 202.4375 141.3125 C202.02238159 142.10515259 202.02238159 142.10515259 201.59887695 142.91381836 C200.31705805 145.3598116 199.03353684 147.80490784 197.75 150.25 C197.31494141 151.08080078 196.87988281 151.91160156 196.43164062 152.76757812 C193.91291697 157.56248167 191.34172095 162.32166356 188.69946289 167.04956055 C186.439685 171.10177206 184.22164567 175.17679507 182 179.25 C181.22837524 180.66357788 181.22837524 180.66357788 180.44116211 182.10571289 C177.6096007 187.30065819 174.79324297 192.50313003 172 197.71875 C165.87917832 209.14386126 159.67786347 220.50577404 153.26196289 231.76928711 C148.82809861 239.57108592 144.55199536 247.45177005 140.30126953 255.35449219 C136.70689975 262.01885134 133.00953944 268.61519426 129.25 275.1875 C123.70927254 284.89255223 118.45785821 294.73809017 113.25 304.625 C103.11182587 323.86778236 103.11182587 323.86778236 98.4375 332.3125 C98.04667236 333.02317627 97.65584473 333.73385254 97.25317383 334.46606445 C95.81515201 337.04198487 94.5346209 339.2153791 92.4375 341.3125 C86.43291284 341.85837156 86.43291284 341.85837156 83.5 340.25 C81.88265562 337.30072495 82.00760823 334.56203123 82.4375 331.3125 C83.50918014 327.80208753 84.964694 324.48374051 86.4375 321.125 C87.09431763 319.59020996 87.09431763 319.59020996 87.7644043 318.02441406 C89.02056444 315.09759937 90.29676461 312.17992083 91.57904053 309.26446533 C92.47874668 307.21871329 93.3754536 305.17166228 94.27197266 303.12451172 C102.81277711 283.64621238 111.6006965 264.28937076 120.6307373 245.0335083 C123.1545546 239.64963205 125.67115571 234.26237212 128.1875 228.875 C128.47237274 228.26510223 128.75724548 227.65520447 129.05075073 227.02682495 C149.63087922 184.65568033 149.63087922 184.65568033 167.27929688 141.05688477 C168.54205404 137.47048579 170.00103999 134.12944209 171.75 130.75 C175.96552703 122.37793425 178.59394432 116.15466852 175.8125 106.875 C174.81845087 103.95578703 173.67644301 101.13546075 172.4375 98.3125 C172.19064453 97.71791992 171.94378906 97.12333984 171.68945312 96.51074219 C168.64987708 89.2906966 164.48059092 83.25964394 159.4375 77.3125 C159.06681396 76.84408691 158.69612793 76.37567383 158.31420898 75.89306641 C145.26759986 59.6023094 125.29115828 52.16358626 105.4375 48.3125 C105.29054688 49.40691406 105.29054688 49.40691406 105.140625 50.5234375 C104.23689232 56.83398463 103.11176212 63.03601842 101.6875 69.25 C99.95230505 76.82244072 98.3932268 84.42378282 96.88665771 92.04428101 C94.44519842 104.39320908 91.89833866 116.71098706 89.17089844 129.00048828 C88.48734923 132.08738195 87.80935879 135.17543415 87.13282776 138.26387024 C83.63773112 154.20825058 80.04098697 170.12329185 76.25 186 C64.57768179 234.65191427 64.57768179 234.65191427 54.375 283.625 C54.23690918 284.34593842 54.09881836 285.06687683 53.95654297 285.80966187 C52.68946966 292.45045635 51.47089881 299.0978359 50.30859375 305.7578125 C50.13658447 306.70487061 49.9645752 307.65192871 49.78735352 308.62768555 C49.48772987 310.28231667 49.20352579 311.93988342 48.94116211 313.60083008 C48.01479922 318.66802922 46.59844507 321.17671531 42.4375 324.3125 C38.56908347 325.28564853 34.3524208 325.24607817 30.71484375 323.47265625 C28.31720264 321.62025131 26.68066614 319.79075521 26.18164062 316.75708008 C25.83903657 309.00947012 28.19031451 301.8383199 30.253479 294.45593262 C31.43693378 290.20681569 32.57419924 285.9454068 33.7109375 281.68359375 C33.94360321 280.81231842 34.17626892 279.94104309 34.41598511 279.04336548 C41.66450525 251.70853113 46.79388803 223.85590811 51.92779541 196.06347656 C52.4437706 193.27865633 52.96412827 190.49468843 53.48583984 187.7109375 C60.47078166 150.4184652 65.81566597 113.20161966 70.02758789 75.50415039 C70.17372996 74.19997586 70.31987855 72.89580206 70.46603394 71.59162903 C70.73713116 69.17165939 71.0052333 66.75138684 71.27127075 64.33085632 C72.16760076 56.29862911 73.25423453 48.30641314 74.4375 40.3125 C73.49385086 40.0006929 72.55020172 39.6888858 71.57795715 39.36763 C69.02226706 38.50896989 66.55801754 37.58469122 64.07421875 36.54296875 C33.95766524 24.08210365 0.38180079 15.67600721 -31.375 27.625 C-41.13333887 31.4126403 -41.13333887 31.4126403 -49.5625 37.3125 C-50.99106642 54.44447453 -48.97722056 71.87934953 -46.96826172 88.87841797 C-46.71800592 90.99640717 -46.47358963 93.11510723 -46.23876953 95.23486328 C-44.97123761 106.63848792 -42.97695824 117.88461114 -40.68359375 129.12109375 C-40.53730215 129.83855459 -40.39101055 130.55601543 -40.24028587 131.29521751 C-37.51779505 144.53537652 -34.32443389 157.64083561 -30.98828125 170.73828125 C-30.74176945 171.70737553 -30.49525764 172.6764698 -30.24127579 173.67493057 C-27.9473731 182.68311852 -25.63645807 191.68688874 -23.30639648 200.68579102 C-15.80453282 229.69702258 -8.70968456 257.96525257 -9.09594727 288.15063477 C-9.12591885 290.70325674 -9.11624688 293.25390405 -9.10351562 295.80664062 C-9.10973029 297.47136408 -9.11810318 299.13608125 -9.12890625 300.80078125 C-9.12597061 301.54346756 -9.12303497 302.28615387 -9.12001038 303.05134583 C-9.22373385 308.82967816 -10.22034537 314.47751309 -13.99049377 319.04096985 C-15.5625 320.3125 -15.5625 320.3125 -18.375 320.3125 C-22.32534759 319.07317527 -24.82245066 317.41489131 -27.5625 314.3125 C-28.8645132 311.71860757 -29.53241914 309.06934441 -30.203125 306.25390625 C-30.41158554 305.45470261 -30.62004608 304.65549896 -30.83482361 303.83207703 C-31.51747493 301.18506009 -32.16602373 298.53106576 -32.8125 295.875 C-33.28600875 293.99099547 -33.76039134 292.10721037 -34.2355957 290.22363281 C-49.38512363 229.59687403 -59.48006561 168.31271368 -65.375 106.125 C-65.48041107 105.01583221 -65.58582214 103.90666443 -65.69442749 102.7638855 C-67.27811029 85.93413969 -68.82774543 69.04644579 -68.625 52.125 C-68.62048828 51.35220703 -68.61597656 50.57941406 -68.61132812 49.78320312 C-68.60000138 47.95959796 -68.5821079 46.13603493 -68.5625 44.3125 C-96.81910334 48.86762741 -126.70292483 54.65516823 -145.5625 78.3125 C-153.96291325 89.61268622 -162.31216598 107.33506755 -163.5625 121.3125 C-162.58639186 124.06209489 -162.58639186 124.06209489 -160.94921875 126.8203125 C-160.66435608 127.33829407 -160.37949341 127.85627563 -160.08599854 128.38995361 C-159.47281785 129.50084454 -158.85309693 130.60814591 -158.22750854 131.71209717 C-157.23613155 133.46197924 -156.26257411 135.22074789 -155.29321289 136.98291016 C-153.99124604 139.34684661 -152.68335057 141.70730116 -151.36914062 144.06445312 C-137.30890953 169.30537412 -125.75518135 195.70687308 -114.5625 222.3125 C-114.03662599 223.56119998 -113.51074702 224.80989787 -112.98486328 226.05859375 C-108.62747634 236.41046169 -104.29409534 246.77236692 -99.96533203 257.13623047 C-93.6027044 272.36816451 -87.19026735 287.57728416 -80.6875 302.75 C-80.38048157 303.46667847 -80.07346313 304.18335693 -79.75714111 304.92175293 C-79.15649181 306.32320061 -78.55535303 307.72443862 -77.95370483 309.12545776 C-77.3688396 310.48808242 -76.7853438 311.85129575 -76.20327759 313.21511841 C-74.70260653 316.71869293 -73.16326765 320.1980885 -71.56152344 323.65673828 C-71.07327591 324.72626488 -71.07327591 324.72626488 -70.57516479 325.81739807 C-69.95730942 327.16713975 -69.32922081 328.51226627 -68.68875122 329.85142517 C-66.69846641 334.22929745 -66.18974024 337.50057825 -66.5625 342.3125 C-67.70260886 344.70305084 -69.26547243 346.01467942 -71.5625 347.3125 C-74.27069532 348.00163899 -75.67728712 347.78462574 -78.5625 347.3125 C-82.02299958 344.47441636 -83.6682087 341.45970791 -85.48828125 337.4140625 C-85.88479637 336.54581848 -85.88479637 336.54581848 -86.2893219 335.66003418 C-86.85997447 334.40946242 -87.42688667 333.15717842 -87.99041748 331.90338135 C-89.51296815 328.51969028 -91.06698036 325.15053507 -92.62109375 321.78125 C-93.10295135 320.73507004 -93.10295135 320.73507004 -93.59454346 319.66775513 C-98.51603812 309.030794 -103.84286458 298.5915 -109.13264465 288.13441467 C-110.71984537 284.99456345 -112.28918518 281.84737107 -113.828125 278.68359375 C-121.68629233 262.5469292 -130.83008693 247.08619464 -140.10791016 231.73364258 C-145.76489586 222.35721207 -151.22794848 212.87588268 -156.5625 203.3125 C-157.01399414 202.50425781 -157.46548828 201.69601563 -157.93066406 200.86328125 C-168.54680095 181.70892683 -177.53381057 160.95918947 -181.5625 139.3125 C-187.22755501 139.3125 -195.22405428 146.72092831 -199.25 150.5 C-210.22741408 162.25576373 -219.45119484 178.03514802 -220.5625 194.3125 C-220.62695312 195.16070312 -220.69140625 196.00890625 -220.7578125 196.8828125 C-221.40060299 212.95257471 -215.38694148 224.40678487 -206.5625 237.3125 C-205.46901231 238.93627957 -204.37889722 240.5622949 -203.28884888 242.18838501 C-194.2344085 255.69100572 -185.07837675 269.12989745 -175.5625 282.3125 C-175.01819336 283.06789063 -174.47388672 283.82328125 -173.91308594 284.6015625 C-165.81459695 295.80713374 -157.41165814 306.69066485 -148.5625 317.3125 C-148.0871582 317.88693848 -147.61181641 318.46137695 -147.12207031 319.05322266 C-133.51887317 335.47891662 -119.05237824 351.86983297 -102.27734375 365.11328125 C-99.06046319 367.71918593 -95.99183347 370.45689541 -92.9375 373.25 C-92.41583252 373.7234082 -91.89416504 374.19681641 -91.35668945 374.68457031 C-86.72600853 378.94854906 -86.72600853 378.94854906 -86.25390625 382.88671875 C-85.86309066 392.32550734 -85.86309066 392.32550734 -89.4375 396.5 C-92.53354715 399.57361203 -94.70410311 400.50819886 -99.0625 400.6875 C-111.88466785 400.48514154 -122.0368258 389.96355868 -130.6875 381.4375 C-135.24170965 376.83519191 -139.36726998 371.90300831 -143.37207031 366.81933594 C-144.62091538 365.2385583 -145.88390292 363.66981035 -147.1484375 362.1015625 C-172.05454982 331.02972365 -192.46398485 296.41672142 -212.14089966 261.88220215 C-212.98006545 260.40997309 -213.82287507 258.9398229 -214.66577148 257.46972656 C-215.16665283 256.58381836 -215.66753418 255.69791016 -216.18359375 254.78515625 C-216.6211499 254.01437744 -217.05870605 253.24359863 -217.50952148 252.44946289 C-218.51946259 250.39984208 -219.10676802 248.54428825 -219.5625 246.3125 C-220.2225 246.3125 -220.8825 246.3125 -221.5625 246.3125 C-221.69527344 247.25867188 -221.82804687 248.20484375 -221.96484375 249.1796875 C-222.39038977 252.16826646 -222.84791936 255.15067944 -223.31640625 258.1328125 C-228.59852466 292.31254709 -220.83463332 322.47214338 -201.05859375 350.85546875 C-197.46911264 355.88295036 -193.64783664 360.6763495 -189.5625 365.3125 C-189.10617188 365.83054199 -188.64984375 366.34858398 -188.1796875 366.88232422 C-163.84336963 394.28508321 -132.98135936 414.62178865 -99.5 429.25 C-89.01613479 433.840248 -79.58141175 439.65361958 -69.95654297 445.80664062 C-39.1701262 465.1713784 -2.9407696 482.32206378 34.3125 475.25 C50.2130275 471.76277472 64.52719957 463.14378725 76.88818359 452.80810547 C86.44537038 444.86409919 86.44537038 444.86409919 93.328125 444.9765625 C98.95845261 445.8732443 102.78461846 448.7989942 106.296875 453.15234375 C108.48939252 457.30461152 108.42654516 461.79757307 107.4375 466.3125 C98.80107604 483.33190263 75.54347707 494.74315146 58.359375 500.78125 C56.99190862 501.23621622 55.62214595 501.68434815 54.25 502.125 C53.64551025 502.32005127 53.04102051 502.51510254 52.41821289 502.71606445 C41.87782204 505.89317735 31.26250373 506.69234807 20.3125 506.625 C19.67787842 506.62284485 19.04325684 506.6206897 18.3894043 506.61846924 C7.8273356 506.56116031 -2.27956531 505.83021122 -12.5625 503.3125 C-13.37025879 503.11914062 -14.17801758 502.92578125 -15.01025391 502.7265625 C-44.34278743 495.50898827 -71.49511944 481.17668366 -96.27001953 464.13818359 C-103.77695061 458.98233662 -111.42290848 454.84315751 -119.6875 451 C-140.89822876 441.11701996 -160.63302358 428.36095291 -178.5625 413.3125 C-179.07312988 412.8906543 -179.58375977 412.46880859 -180.10986328 412.03417969 C-193.11584733 401.2760967 -205.30758104 389.76301523 -215.5625 376.3125 C-215.99127441 375.76013672 -216.42004883 375.20777344 -216.86181641 374.63867188 C-231.91308641 355.18254278 -243.15590144 333.40096797 -248.5625 309.3125 C-248.74796387 308.51368408 -248.93342773 307.71486816 -249.12451172 306.8918457 C-250.83132942 298.72698406 -250.95981975 290.6800737 -250.9375 282.375 C-250.93728851 281.64839172 -250.93707703 280.92178345 -250.93685913 280.17315674 C-250.89143242 264.50115733 -248.87442769 249.88703302 -243.05004883 235.23974609 C-241.43048276 230.97219889 -241.62023324 227.66520556 -242.5625 223.3125 C-242.81566231 221.97430892 -243.06689346 220.63575136 -243.31640625 219.296875 C-243.44901855 218.60916016 -243.58163086 217.92144531 -243.71826172 217.21289062 C-248.00948697 194.52554848 -243.46468778 172.64022679 -231.33984375 152.98046875 C-228.6206049 148.8986223 -225.72775765 145.05805488 -222.5625 141.3125 C-221.86125 140.4771875 -221.16 139.641875 -220.4375 138.78125 C-213.35363411 130.61512682 -205.6844669 124.75501249 -196.3359375 119.37890625 C-189.25677673 114.10443294 -185.53326779 108.01997497 -182.625 99.8125 C-181.95159811 98.03846488 -181.27313239 96.26634439 -180.58984375 94.49609375 C-180.2532373 93.62194824 -179.91663086 92.74780273 -179.56982422 91.84716797 C-169.1473612 65.62176539 -150.3708816 46.21117303 -124.80737305 34.3684082 C-110.50815518 28.03081659 -94.84777432 23.98735866 -79.20703125 23.00390625 C-68.76830487 22.28868407 -62.48196973 19.51835069 -54.06591797 13.37841797 C-48.17122203 9.19909961 -41.50594319 6.8199231 -34.6875 4.625 C-34.06375488 4.42229492 -33.44000977 4.21958984 -32.79736328 4.01074219 C-22.01323409 0.7158208 -11.19996237 -0.06648128 0 0 Z " transform="translate(250.5625,2.6875)" style="fill: #2E386B;"/>
</g>
</svg>
